<?xml version="1.0" encoding="utf-8"?>
<svg version="1.1" xmlns:xlink="http://www.w3.org/1999/xlink" width="15px" height="16px" xmlns="http://www.w3.org/2000/svg">
  <g transform="matrix(1 0 0 1 -34 -252 )">
    <path d="M 8.57722355769231 4.10714285714286  C 9.03695913461539 4.55952380952381  9.26682692307692 5.10714285714286  9.26682692307692 5.75  C 9.26682692307692 6.38690476190476  9.03695913461539 6.93154761904762  8.57722355769231 7.38392857142857  C 8.11748798076923 7.83630952380952  7.56610576923077 8.0625  6.92307692307692 8.0625  C 6.28004807692308 8.0625  5.72866586538462 7.83630952380952  5.26893028846154 7.38392857142857  C 4.80919471153846 6.93154761904762  4.57932692307692 6.38690476190476  4.57932692307692 5.75  C 4.57932692307692 5.10714285714286  4.80919471153846 4.55952380952381  5.26893028846154 4.10714285714286  C 5.72866586538462 3.6547619047619  6.28004807692308 3.42857142857143  6.92307692307692 3.42857142857143  C 7.56610576923077 3.42857142857143  8.11748798076923 3.6547619047619  8.57722355769231 4.10714285714286  Z M 8.54567307692308 7.88839285714286  C 8.69591346153846 7.79613095238095  8.79206730769231 7.73809523809524  8.83413461538462 7.71428571428571  C 9.11057692307692 7.71428571428571  9.35847355769231 7.76488095238095  9.57782451923077 7.86607142857143  C 9.79717548076923 7.9672619047619  9.97746394230769 8.10863095238095  10.1186899038462 8.29017857142857  C 10.2599158653846 8.47172619047619  10.3786057692308 8.67113095238095  10.4747596153846 8.88839285714286  C 10.5709134615385 9.10565476190476  10.6430288461538 9.34672619047619  10.6911057692308 9.61160714285714  C 10.7391826923077 9.87648809523809  10.7737379807692 10.1220238095238  10.7947716346154 10.3482142857143  C 10.8158052884615 10.5744047619048  10.8263221153846 10.8095238095238  10.8263221153846 11.0535714285714  C 10.8263221153846 11.452380952381  10.7076322115385 11.8050595238095  10.4702524038462 12.1116071428571  C 10.2328725961538 12.4181547619048  9.91586538461539 12.5714285714286  9.51923076923077 12.5714285714286  L 4.32692307692308 12.5714285714286  C 3.93028846153846 12.5714285714286  3.61328125 12.4181547619048  3.37590144230769 12.1116071428571  C 3.13852163461539 11.8050595238095  3.01983173076923 11.452380952381  3.01983173076923 11.0535714285714  C 3.01983173076923 10.7678571428571  3.03335336538462 10.4895833333333  3.06039663461538 10.21875  C 3.08743990384615 9.94791666666666  3.14302884615385 9.65476190476191  3.22716346153846 9.33928571428572  C 3.31129807692308 9.02380952380952  3.42097355769231 8.75148809523809  3.55618990384615 8.52232142857143  C 3.69140625 8.29315476190476  3.88070913461539 8.10119047619047  4.12409855769231 7.94642857142857  C 4.36748798076923 7.79166666666667  4.6484375 7.71428571428571  4.96694711538462 7.71428571428571  L 5.01201923076923 7.71428571428571  C 5.05408653846154 7.73809523809524  5.15024038461539 7.79613095238095  5.30048076923077 7.88839285714286  C 5.45072115384615 7.98065476190476  5.55739182692308 8.04315476190476  5.62049278846154 8.07589285714286  C 5.68359375 8.10863095238095  5.78275240384615 8.15922619047619  5.91796875 8.22767857142857  C 6.05318509615385 8.29613095238095  6.16436298076923 8.34375  6.25150240384615 8.37053571428572  C 6.33864182692308 8.39732142857143  6.44381009615385 8.42410714285714  6.56700721153846 8.45089285714286  C 6.69020432692308 8.47767857142857  6.80889423076923 8.49107142857143  6.92307692307692 8.49107142857143  C 7.03725961538462 8.49107142857143  7.15594951923077 8.47767857142857  7.27914663461538 8.45089285714286  C 7.40234375 8.42410714285714  7.50751201923077 8.39732142857143  7.59465144230769 8.37053571428572  C 7.68179086538462 8.34375  7.79296875 8.29613095238095  7.92818509615385 8.22767857142857  C 8.06340144230769 8.15922619047619  8.16256009615385 8.10863095238095  8.22566105769231 8.07589285714286  C 8.28876201923077 8.04315476190476  8.39543269230769 7.98065476190476  8.54567307692308 7.88839285714286  Z M 15 3.71428571428571  L 15 5.42857142857143  C 15 5.50595238095238  14.9714543269231 5.57291666666667  14.9143629807692 5.62946428571429  C 14.8572716346154 5.6860119047619  14.7896634615385 5.71428571428571  14.7115384615385 5.71428571428571  L 13.8461538461538 5.71428571428571  L 13.8461538461538 6.85714285714286  L 14.7115384615385 6.85714285714286  C 14.7896634615385 6.85714285714286  14.8572716346154 6.88541666666667  14.9143629807692 6.94196428571429  C 14.9714543269231 6.9985119047619  15 7.06547619047619  15 7.14285714285714  L 15 8.85714285714286  C 15 8.93452380952381  14.9714543269231 9.00148809523809  14.9143629807692 9.05803571428572  C 14.8572716346154 9.11458333333333  14.7896634615385 9.14285714285714  14.7115384615385 9.14285714285714  L 13.8461538461538 9.14285714285714  L 13.8461538461538 10.2857142857143  L 14.7115384615385 10.2857142857143  C 14.7896634615385 10.2857142857143  14.8572716346154 10.3139880952381  14.9143629807692 10.3705357142857  C 14.9714543269231 10.4270833333333  15 10.4940476190476  15 10.5714285714286  L 15 12.2857142857143  C 15 12.3630952380952  14.9714543269231 12.4300595238095  14.9143629807692 12.4866071428571  C 14.8572716346154 12.5431547619048  14.7896634615385 12.5714285714286  14.7115384615385 12.5714285714286  L 13.8461538461538 12.5714285714286  L 13.8461538461538 14.5714285714286  C 13.8461538461538 14.9642857142857  13.7049278846154 15.3005952380952  13.4224759615385 15.5803571428571  C 13.1400240384615 15.860119047619  12.8004807692308 16  12.4038461538462 16  L 1.44230769230769 16  C 1.04567307692308 16  0.706129807692308 15.860119047619  0.423677884615385 15.5803571428571  C 0.141225961538462 15.3005952380952  0 14.9642857142857  0 14.5714285714286  L 0 1.42857142857143  C 0 1.03571428571429  0.141225961538462 0.699404761904761  0.423677884615385 0.419642857142858  C 0.706129807692308 0.139880952380953  1.04567307692308 0  1.44230769230769 0  L 12.4038461538462 0  C 12.8004807692308 0  13.1400240384615 0.139880952380953  13.4224759615385 0.419642857142858  C 13.7049278846154 0.699404761904761  13.8461538461538 1.03571428571429  13.8461538461538 1.42857142857143  L 13.8461538461538 3.42857142857143  L 14.7115384615385 3.42857142857143  C 14.7896634615385 3.42857142857143  14.8572716346154 3.45684523809524  14.9143629807692 3.51339285714286  C 14.9714543269231 3.56994047619048  15 3.63690476190476  15 3.71428571428571  Z M 12.6066706730769 14.7723214285714  C 12.6637620192308 14.7157738095238  12.6923076923077 14.6488095238095  12.6923076923077 14.5714285714286  L 12.6923076923077 1.42857142857143  C 12.6923076923077 1.35119047619048  12.6637620192308 1.28422619047619  12.6066706730769 1.22767857142857  C 12.5495793269231 1.17113095238095  12.4819711538462 1.14285714285714  12.4038461538462 1.14285714285714  L 1.44230769230769 1.14285714285714  C 1.36418269230769 1.14285714285714  1.29657451923077 1.17113095238095  1.23948317307692 1.22767857142857  C 1.18239182692308 1.28422619047619  1.15384615384615 1.35119047619048  1.15384615384615 1.42857142857143  L 1.15384615384615 14.5714285714286  C 1.15384615384615 14.6488095238095  1.18239182692308 14.7157738095238  1.23948317307692 14.7723214285714  C 1.29657451923077 14.828869047619  1.36418269230769 14.8571428571429  1.44230769230769 14.8571428571429  L 12.4038461538462 14.8571428571429  C 12.4819711538462 14.8571428571429  12.5495793269231 14.828869047619  12.6066706730769 14.7723214285714  Z " fill-rule="nonzero" fill="#ffffff" stroke="none" transform="matrix(1 0 0 1 34 252 )" />
  </g>
</svg>