<?xml version="1.0" encoding="utf-8"?>
<svg version="1.1" xmlns:xlink="http://www.w3.org/1999/xlink" width="180px" height="32px" xmlns="http://www.w3.org/2000/svg">
  <g>
    <path d="M 0.5 3  A 2.5 2.5 0 0 1 3 0.5 L 177 0.5  A 2.5 2.5 0 0 1 179.5 3 L 179.5 29  A 2.5 2.5 0 0 1 177 31.5 L 3 31.5  A 2.5 2.5 0 0 1 0.5 29 L 0.5 3  Z " fill-rule="nonzero" fill="#ffffff" stroke="none" />
    <path d="M 0.5 3  A 2.5 2.5 0 0 1 3 0.5 L 177 0.5  A 2.5 2.5 0 0 1 179.5 3 L 179.5 29  A 2.5 2.5 0 0 1 177 31.5 L 3 31.5  A 2.5 2.5 0 0 1 0.5 29 L 0.5 3  Z " stroke-width="1" stroke="#0079fe" fill="none" />
  </g>
</svg>