<?xml version="1.0" encoding="utf-8"?>
<svg version="1.1" xmlns:xlink="http://www.w3.org/1999/xlink" width="10px" height="12px" xmlns="http://www.w3.org/2000/svg">
  <g transform="matrix(1 0 0 1 -14 -42 )">
    <path d="M 9 10.8658294778586  L 9 1.01520158625248  L 1 1.01520158625248  L 1 10.8658294778586  L 4.3046875 7.64573694646398  L 5 6.97157964309319  L 5.6953125 7.64573694646398  L 9 10.8658294778586  Z M 0.90625 0  L 9.09375 0  C 9.21354166666667 0  9.328125 0.0237937871777927  9.4375 0.071381361533378  C 9.609375 0.140118968935887  9.74609375 0.248512888301387  9.84765625 0.396563119629874  C 9.94921875 0.54461335095836  10 0.708526107072041  10 0.888301387970918  L 10 11.1116986120291  C 10 11.291473892928  9.94921875 11.4553866490416  9.84765625 11.6034368803701  C 9.74609375 11.7514871116986  9.609375 11.8598810310641  9.4375 11.9286186384666  C 9.33854166666667 11.9709187045605  9.22395833333333 11.9920687376074  9.09375 11.9920687376074  C 8.84375 11.9920687376074  8.62760416666667 11.9074686054197  8.4453125 11.7382683410443  L 5 8.37541308658295  L 1.5546875 11.7382683410443  C 1.3671875 11.9127561136814  1.15104166666667 12  0.90625 12  C 0.786458333333333 12  0.671875 11.9762062128222  0.5625 11.9286186384666  C 0.390625 11.8598810310641  0.25390625 11.7514871116986  0.15234375 11.6034368803701  C 0.05078125 11.4553866490416  0 11.291473892928  0 11.1116986120291  L 0 0.888301387970918  C 0 0.708526107072041  0.05078125 0.54461335095836  0.15234375 0.396563119629874  C 0.25390625 0.248512888301387  0.390625 0.140118968935887  0.5625 0.071381361533378  C 0.671875 0.0237937871777927  0.786458333333333 0  0.90625 0  Z " fill-rule="nonzero" fill="#7f7f7f" stroke="none" transform="matrix(1 0 0 1 14 42 )" />
  </g>
</svg>